Coordinates
version=1
nRows=54
nColumns=12
inDegrees=yes

Units are S.I. units (second, meters, Newtons, ...)
Angles are in degrees

endheader
time	SC_y	SC_z	SC_x	AC_y	AC_z	AC_x	GH_y	GH_z	GH_yy	EL_x	PS_y
       0.0              -40.42          27.74          55.89          49.14          7.381         -7.384          75.49          2.587          160.3          112.7          90.79
   0.02277              -40.41          27.74          55.88          49.14          7.377         -7.384           75.5          2.599          160.2          112.7          90.79
   0.04554              -40.41          27.74          55.87          49.14          7.373         -7.383          75.52          2.611          160.2          112.7           90.8
   0.06831              -40.41          27.74          55.87          49.14          7.368         -7.382          75.53          2.624          160.2          112.7           90.8
   0.09108              -40.41          27.73          55.86          49.15          7.364         -7.381          75.54          2.638          160.2          112.7           90.8
    0.1139              -40.41          27.73          55.85          49.15          7.359          -7.38          75.56          2.653          160.2          112.7          90.81
    0.1366              -40.41          27.73          55.84          49.15          7.354         -7.379          75.57          2.668          160.1          112.7          90.81
    0.1594               -40.4          27.73          55.83          49.15          7.348         -7.378          75.59          2.685          160.1          112.7          90.81
    0.1822               -40.4          27.73          55.82          49.15          7.342         -7.376          75.61          2.703          160.1          112.6          90.82
    0.2049               -40.4          27.72          55.81          49.16          7.336         -7.375          75.63          2.722          160.1          112.6          90.82
    0.2277               -40.4          27.72           55.8          49.16          7.329         -7.374          75.65          2.743          160.0          112.6          90.82
    0.2505              -40.39          27.72          55.79          49.16          7.322         -7.372          75.67          2.766          160.0          112.6          90.83
    0.2732              -40.39          27.71          55.78          49.16          7.314          -7.37           75.7           2.79          160.0          112.6          90.83
     0.296              -40.39          27.71          55.76          49.17          7.305         -7.368          75.72          2.816          159.9          112.6          90.84
    0.3188              -40.38          27.71          55.75          49.17          7.296         -7.367          75.75          2.844          159.9          112.6          90.85
    0.3416              -40.38           27.7          55.73          49.17          7.286         -7.364          75.78          2.874          159.9          112.6          90.85
    0.3643              -40.38           27.7          55.71          49.18          7.275         -7.362          75.81          2.907          159.8          112.6          90.86
    0.3871              -40.37          27.69          55.69          49.18          7.263          -7.36          75.85          2.944          159.8          112.6          90.87
    0.4099              -40.37          27.69          55.67          49.19          7.249         -7.357          75.89          2.983          159.7          112.6          90.88
    0.4326              -40.36          27.68          55.65          49.19          7.235         -7.354          75.93          3.026          159.6          112.5          90.88
    0.4554              -40.35          27.68          55.62           49.2          7.219         -7.351          75.98          3.074          159.6          112.5          90.89
    0.4782              -40.35          27.67          55.59           49.2          7.202         -7.347          76.03          3.126          159.5          112.5          90.91
    0.5009              -40.34          27.66          55.56          49.21          7.183         -7.343          76.09          3.184          159.4          112.5          90.92
    0.5237              -40.33          27.65          55.53          49.22          7.162         -7.339          76.16          3.247          159.3          112.5          90.93
    0.5465              -40.32          27.65          55.49          49.23          7.138         -7.334          76.23          3.319          159.2          112.5          90.95
    0.5693              -40.31          27.64          55.45          49.24          7.112         -7.328          76.31          3.398          159.1          112.4          90.96
     0.592               -40.3          27.62           55.4          49.25          7.083         -7.322           76.4          3.487          159.0          112.4          90.98
    0.6148              -40.29          27.61          55.34          49.26           7.05         -7.315           76.5          3.586          158.9          112.4           91.0
    0.6376              -40.28           27.6          55.28          49.27          7.012         -7.307          76.61          3.699          158.7          112.3          91.03
    0.6603              -40.26          27.58          55.21          49.29           6.97         -7.298          76.74          3.827          158.5          112.3          91.05
    0.6831              -40.24          27.56          55.13          49.31          6.921         -7.288          76.89          3.974          158.3          112.2          91.08
    0.7059              -40.22          27.54          55.04          49.33          6.866         -7.276          77.06          4.142          158.1          112.2          91.12
    0.7286               -40.2          27.51          54.94          49.35          6.801         -7.263          77.25          4.335          157.8          112.1          91.16
    0.7514              -40.17          27.48          54.81          49.38          6.727         -7.247          77.48          4.561          157.5          112.1          91.21
    0.7742              -40.13          27.45          54.67          49.41           6.64         -7.229          77.74          4.824          157.2          112.0          91.26
     0.797               -40.1          27.41           54.5          49.45          6.537         -7.208          78.05          5.135          156.7          111.9          91.33
    0.8197              -40.05          27.36           54.3          49.49          6.414         -7.182          78.43          5.504          156.2          111.8          91.41
    0.8425              -39.99           27.3          54.06          49.54          6.268         -7.151          78.87          5.946          155.6          111.6           91.5
    0.8653              -39.93          27.23          53.77          49.61           6.09         -7.114          79.41          6.481          154.9          111.4          91.62
     0.888              -39.84          27.15          53.41          49.69          5.874         -7.069          80.07          7.135          154.0          111.2          91.75
    0.9108              -39.74          27.04          52.98          49.78          5.606         -7.013          80.88          7.942          152.9          111.0          91.92
    0.9336              -39.62          26.91          52.43           49.9          5.273         -6.943          81.89          8.949          151.5          110.6          92.14
    0.9564              -39.46          26.75          51.74          50.06          4.853         -6.855          83.16          10.22          149.7          110.2           92.4
    0.9791              -39.25          26.54          50.86          50.25          4.319         -6.743          84.78          11.83          147.5          109.7          92.75
     1.002              -38.99          26.27          49.74           50.5          3.636           -6.6          86.86          13.89          144.6          109.1          93.18
     1.025              -38.66          25.92           48.3          50.82          2.759         -6.417          89.52          16.54          141.0          108.2          93.74
     1.047              -38.24          25.48          46.46          51.22          1.638         -6.182          92.92          19.92          136.3          107.1          94.46
      1.07               -37.7          24.93          44.15          51.73         0.2296         -5.887           97.2          24.17          130.5          105.8          95.36
     1.093              -37.05          24.25          41.33          52.35         -1.487         -5.528          102.4          29.35          123.3          104.1          96.45
     1.116              -36.29          23.47          38.07          53.08         -3.477         -5.111          108.4          35.36          115.0          102.2          97.72
     1.139              -35.48          22.62          34.53          53.86         -5.631          -4.66          115.0          41.86          106.0          100.1           99.1
     1.161              -34.66          21.78           31.0          54.64         -7.786         -4.209          121.5          48.36          97.06          98.01          100.5
     1.184               -33.9          20.99          27.73          55.36         -9.775         -3.792          127.6          54.37          88.77          96.09          101.7
     1.207              -33.25          20.32          24.91          55.98         -11.49         -3.433          132.8          59.55          81.61          94.43          102.8
